Coordinates
version=1
nRows=19
nColumns=24
inDegrees=yes

Units are S.I. units (second, meters, Newtons, ...)
Angles are in degrees.

endheader
time	pelvis_tilt	pelvis_list	pelvis_rotation	pelvis_tx	pelvis_ty	pelvis_tz	hip_flexion_r	hip_adduction_r	hip_rotation_r	knee_angle_r	ankle_angle_r	subtalar_angle_r	mtp_angle_r	hip_flexion_l	hip_adduction_l	hip_rotation_l	knee_angle_l	ankle_angle_l	subtalar_angle_l	mtp_angle_l	lumbar_extension	lumbar_bending	lumbar_rotation
      5.33000000	     39.43444566	      6.59790196	      1.52367324	      0.03723956	      0.68249080	     -0.24912952	    -39.54982241	     -0.37528818	     -9.10814729	     -7.63097282	     18.67147797	     10.02574030	      0.00000000	    -15.26849361	      0.04716539	    -15.03173573	    -60.76020755	      2.62646676	      0.49156102	      0.00000000	    -64.41291893	     -1.91842629	     -1.49788550
      5.33500000	     39.31479954	      6.50538705	      1.22725246	      0.04171359	      0.68249411	     -0.24919151	    -40.07429546	     -0.46016221	     -9.06374335	     -7.12632360	     18.79364663	     10.29260423	      0.00000000	    -14.75596978	      0.29433556	    -15.22077919	    -59.50318135	      3.10529387	      1.29382356	      0.00000000	    -64.35943853	     -2.05853418	     -1.30291378
      5.34000000	     39.40283043	      6.35328462	      0.74779349	      0.04621522	      0.68256396	     -0.24918580	    -40.82041884	     -0.61069482	     -8.91510081	     -6.60718135	     18.92798164	     10.63783029	      0.00000000	    -14.58747573	      0.52640917	    -15.60767793	    -58.05334476	      3.59856420	      1.91418228	      0.00000000	    -64.48667007	     -2.26818975	     -0.96578304
      5.34500000	     39.25615219	      6.23267666	      0.52899196	      0.05075870	      0.68239660	     -0.24922709	    -41.33101397	     -0.61126367	     -8.89669065	     -6.08961998	     19.06581115	     10.78019354	      0.00000000	    -14.09801018	      0.69466787	    -15.74213364	    -56.67047635	      3.99115211	      2.54629487	      0.00000000	    -64.38871964	     -2.35059077	     -0.81261029
      5.35000000	     39.32976443	      6.06493333	      0.12524652	      0.05530008	      0.68230675	     -0.24923602	    -42.07017362	     -0.70112408	     -8.75583213	     -5.57347034	     19.20261530	     11.05121242	      0.00000000	    -13.96454577	      0.88085930	    -16.04658544	    -55.09120027	      4.39544553	      3.00502510	      0.00000000	    -64.49656606	     -2.50995531	     -0.50963485
      5.35500000	     39.18503144	      5.91699148	     -0.04356739	      0.05987357	      0.68199648	     -0.24929777	    -42.58520780	     -0.64488084	     -8.73520020	     -5.06347232	     19.33920557	     11.13566217	      0.00000000	    -13.53831225	      1.00068033	    -16.12859124	    -53.57061724	      4.70479917	      3.47112225	      0.00000000	    -64.39566468	     -2.54620130	     -0.34733915
      5.36000000	     39.23045190	      5.73254103	     -0.36583780	      0.06445443	      0.68173117	     -0.24929736	    -43.29658651	     -0.66608738	     -8.61111923	     -4.56327650	     19.50697671	     11.33915240	      0.00000000	    -13.42486026	      1.13250682	    -16.35555947	    -51.87633416	      5.04148006	      3.81749589	      0.00000000	    -64.46917923	     -2.64939332	     -0.10981297
      5.36500000	     39.03794396	      5.53829219	     -0.38583703	      0.06900138	      0.68122480	     -0.24950434	    -43.75299182	     -0.47836437	     -8.55931689	     -4.08350731	     19.61162961	     11.33037955	      0.00000000	    -12.96223816	      1.18387493	    -16.26291504	    -50.28380199	      5.25444745	      3.95391830	      0.00000000	    -64.32803138	     -2.54036296	      0.06971292
      5.37000000	     39.14807553	      5.37355997	     -0.75018095	      0.07366730	      0.68089173	     -0.24940339	    -44.53190673	     -0.54398686	     -8.44680716	     -3.61269347	     19.80839727	     11.52993078	      0.00000000	    -13.03192553	      1.33261930	    -16.52097675	    -48.38601187	      5.50658679	      4.37398268	      0.00000000	    -64.45032636	     -2.70781748	      0.29852529
      5.37500000	     38.95118203	      5.15826834	     -0.72589851	      0.07822566	      0.68024680	     -0.24962286	    -44.96570345	     -0.31125848	     -8.39133707	     -3.18045029	     19.94357023	     11.50018267	      0.00000000	    -12.62860295	      1.34769752	    -16.37113174	    -46.66606200	      5.65392763	      4.47908259	      0.00000000	    -64.30532269	     -2.55585717	      0.47951632
      5.38000000	     39.05692711	      4.99257258	     -1.01822879	      0.08292987	      0.67977767	     -0.24952178	    -45.73389039	     -0.32765844	     -8.28866003	     -2.74664637	     20.14572994	     11.61684793	      0.00000000	    -12.75656388	      1.47532088	    -16.55425988	    -44.64310302	      5.81399926	      4.80979388	      0.00000000	    -64.41287688	     -2.69504063	      0.69456842
      5.38500000	     38.85614785	      4.76673662	     -0.95191325	      0.08749916	      0.67901190	     -0.24976103	    -46.12882641	     -0.06446600	     -8.22992981	     -2.39817955	     20.31167401	     11.58665184	      0.00000000	    -12.42188544	      1.47120292	    -16.34729848	    -42.78798615	      5.93037377	      4.93319661	      0.00000000	    -64.26657024	     -2.51237137	      0.86894476
      5.39000000	     38.83759150	      4.60787022	     -1.09348645	      0.09223207	      0.67834556	     -0.24972576	    -46.74025529	      0.01373101	     -8.18035811	     -2.03433875	     20.54245838	     11.64470985	      0.00000000	    -12.44150783	      1.56041552	    -16.38397404	    -40.70485432	      6.00253049	      5.33979415	      0.00000000	    -64.25693588	     -2.55848151	      1.02737935
      5.39500000	     38.82812928	      4.38893272	     -1.16823661	      0.09687098	      0.67760655	     -0.24983536	    -47.32234373	      0.17013266	     -8.09251309	     -1.73791489	     20.75434293	     11.66808341	      0.00000000	    -12.47421047	      1.60216273	    -16.31371255	    -38.60296723	      6.07404718	      5.56432777	      0.00000000	    -64.27444320	     -2.49815451	      1.24774835
      5.40000000	     38.64428807	      4.13459718	     -1.06204567	      0.10147904	      0.67668179	     -0.25011482	    -47.67406957	      0.47204891	     -8.03785713	     -1.53248859	     20.99506966	     11.64466594	      0.00000000	    -12.27744485	      1.57127513	    -16.04279130	    -36.56197894	      6.17695655	      5.74195287	      0.00000000	    -64.13265534	     -2.27417227	      1.40532596
      5.40500000	     38.64365161	      3.93602537	     -1.13374990	      0.10617176	      0.67586481	     -0.25016269	    -48.22859489	      0.61059110	     -7.97900667	     -1.32871863	     21.28223061	     11.72762984	      0.00000000	    -12.41881454	      1.61011353	    -16.02909888	    -34.32136950	      6.20588192	      6.26945022	      0.00000000	    -64.16170540	     -2.23404520	      1.54292321
      5.41000000	     38.50907971	      3.70075072	     -1.03180130	      0.11086157	      0.67488486	     -0.25043193	    -48.61540973	      0.89366621	     -7.97438710	     -1.17972745	     21.55704757	     11.69884998	      0.00000000	    -12.38007732	      1.59826756	    -15.79519188	    -32.14058267	      6.25347980	      6.57511108	      0.00000000	    -64.05374919	     -2.03744207	      1.78427334
      5.41500000	     38.41303481	      3.46176969	     -0.96691651	      0.11557757	      0.67390267	     -0.25065687	    -49.01118460	      1.14571672	     -7.95124992	     -1.10233858	     21.86821019	     11.74293884	      0.00000000	    -12.43981721	      1.58378096	    -15.59129282	    -29.89933533	      6.26810852	      7.12332874	      0.00000000	    -63.98031627	     -1.87171859	      1.96532505
      5.42000000	     38.43061179	      3.18662379	     -0.99301998	      0.12028298	      0.67296625	     -0.25087666	    -49.49361245	      1.34017474	     -7.84460250	     -1.09387875	     22.18654743	     11.88609650	      0.00000000	    -12.69975206	      1.56320204	    -15.50885929	    -27.56978003	      6.27394567	      7.72764766	      0.00000000	    -64.02836945	     -1.72811530	      2.12418688
